<svg width="94" height="26" viewBox="0 0 94 26" fill="none" xmlns="http://www.w3.org/2000/svg">
<path d="M32.9026 14.4339C32.1031 14.0081 31.6922 13.6492 31.6922 13.1559C31.6922 12.5282 32.263 12.125 33.1543 12.125C34.1919 12.125 35.1183 12.5507 35.1183 12.5507L35.849 10.3537C35.849 10.3537 35.1771 9.83789 33.1995 9.83789C30.4474 9.83789 28.54 11.3847 28.54 13.5591C28.54 14.7921 29.4306 15.7336 30.6188 16.4057C31.5782 16.9433 31.9209 17.3247 31.9209 17.8849C31.9209 18.4676 31.4412 18.9384 30.5506 18.9384C29.2234 18.9384 27.9699 18.2656 27.9699 18.2656L27.1934 20.4626C27.1934 20.4626 28.3514 21.2247 30.2997 21.2247C33.1321 21.2247 35.1649 19.8574 35.1649 17.3916C35.1642 16.07 34.1367 15.1284 32.9026 14.4339Z" fill="black"/>
<path d="M44.1871 9.81598C42.7939 9.81598 41.6975 10.4662 40.8528 11.4521L40.8069 11.4296L42.0173 5.2207H38.8651L35.8047 21.0234H38.9569L40.0074 15.6216C40.4183 13.5816 41.4917 12.3268 42.497 12.3268C43.2048 12.3268 43.4794 12.7976 43.4794 13.4704C43.4794 13.8961 43.4335 14.412 43.3424 14.8377L42.155 21.0241H45.3072L46.5405 14.6357C46.6775 13.963 46.7693 13.1565 46.7693 12.6182C46.7678 10.8694 45.8314 9.81598 44.1871 9.81598Z" fill="black"/>
<path d="M53.8935 9.81641C50.1017 9.81641 47.5898 13.1788 47.5898 16.9218C47.5898 19.3201 49.0971 21.2476 51.9295 21.2476C55.6525 21.2476 58.1651 17.9753 58.1651 14.1422C58.1651 11.9233 56.8399 9.81641 53.8935 9.81641ZM52.3404 18.8725C51.2669 18.8725 50.8102 17.976 50.8102 16.855C50.8102 15.0844 51.7467 12.1929 53.4597 12.1929C54.579 12.1929 54.944 13.1344 54.944 14.0535C54.944 15.9585 54.0083 18.8725 52.3404 18.8725Z" fill="black"/>
<path d="M66.2264 9.81641C64.0989 9.81641 62.8914 11.6545 62.8914 11.6545H62.8462L63.029 9.99585H60.2425C60.1056 11.1169 59.8539 12.8199 59.6029 14.0978L57.4102 25.4171H60.5624L61.43 20.8444H61.4988C61.4988 20.8444 62.1456 21.2476 63.3489 21.2476C67.0489 21.2476 69.4697 17.527 69.4697 13.7607C69.4697 11.677 68.5332 9.81641 66.2264 9.81641ZM63.2112 18.9169C62.393 18.9169 61.909 18.4686 61.909 18.4686L62.4346 15.577C62.8003 13.6496 63.8279 12.3716 64.9242 12.3716C65.8837 12.3716 66.1805 13.2456 66.1805 14.0753C66.1805 16.0703 64.9701 18.9169 63.2112 18.9169Z" fill="black"/>
<path d="M73.9701 5.37793C72.9655 5.37793 72.166 6.16257 72.166 7.171C72.166 8.09006 72.7597 8.71777 73.6503 8.71777H73.6962C74.6786 8.71777 75.5233 8.06754 75.5462 6.9247C75.5462 6.02816 74.9296 5.37793 73.9701 5.37793Z" fill="black"/>
<path d="M69.5625 21.0239H72.714L74.8616 10.0635H71.6864L69.5625 21.0239Z" fill="black"/>
<path d="M82.8781 10.0406H80.6853L80.7993 9.52479C80.9822 8.47132 81.6218 7.52975 82.6723 7.52975C83.233 7.52975 83.6769 7.68668 83.6769 7.68668L84.2936 5.26589C84.2936 5.26589 83.7457 4.99707 82.5805 4.99707C81.4612 4.99707 80.3426 5.31093 79.4972 6.02802C78.4237 6.92455 77.9211 8.22432 77.6701 9.52479L77.579 10.0406H76.1169L75.6602 12.372H77.1222L75.4551 21.0242H78.6073L80.2745 12.372H82.4443L82.8781 10.0406Z" fill="black"/>
<path d="M90.4611 10.0632C90.4611 10.0632 88.4906 14.935 87.6057 17.5944H87.5598C87.4996 16.738 86.7833 10.0632 86.7833 10.0632H83.4711L85.3678 20.1271C85.4137 20.3509 85.3907 20.486 85.2989 20.6429C84.9332 21.3375 84.3166 22.0102 83.5859 22.5035C82.9921 22.9293 82.3296 23.1981 81.8047 23.3775L82.6723 26.0003C83.3119 25.8659 84.6364 25.3501 85.7557 24.3191C87.1948 22.9968 88.5193 20.9568 89.8896 18.1771L93.7495 10.0625H90.4611V10.0632Z" fill="black"/>
<path d="M19.2705 4.81259C19.2524 4.6856 19.1439 4.61707 19.0515 4.609C18.961 4.60094 17.1865 4.57474 17.1865 4.57474C17.1865 4.57474 15.7034 3.12947 15.5567 2.98232C15.41 2.83517 15.1246 2.87952 15.0121 2.91177C15.0101 2.91177 14.7327 2.99845 14.2665 3.14358C14.1881 2.8896 14.0736 2.57716 13.9088 2.26472C13.3802 1.25283 12.6065 0.718669 11.672 0.716653C11.67 0.716653 11.67 0.716653 11.668 0.716653C11.6037 0.716653 11.5394 0.722701 11.4731 0.728748C11.4449 0.696497 11.4188 0.662229 11.3887 0.631993C10.9807 0.194583 10.4582 -0.017067 9.83321 0.00107442C8.62541 0.0353416 7.42364 0.910163 6.44896 2.46428C5.76166 3.5568 5.24116 4.93152 5.09245 5.9938C3.70579 6.42516 2.73513 6.72551 2.71503 6.73155C2.01568 6.95127 1.99357 6.97344 1.90113 7.63459C1.83079 8.13449 0 22.3372 0 22.3372L15.3477 25L21.9996 23.3411C22.0016 23.3431 19.2866 4.93958 19.2705 4.81259ZM13.4968 3.38345C13.1431 3.4923 12.7412 3.61727 12.3051 3.75434C12.297 3.14156 12.2227 2.2869 11.9373 1.55116C12.8557 1.7225 13.3059 2.76261 13.4968 3.38345ZM11.5032 4.00227C10.6994 4.25222 9.82116 4.52434 8.94093 4.79848C9.18812 3.84706 9.65837 2.89968 10.2351 2.28085C10.4502 2.05106 10.7496 1.79305 11.1053 1.6459C11.4389 2.34334 11.5113 3.33305 11.5032 4.00227ZM9.85934 0.805345C10.1427 0.799298 10.3818 0.861785 10.5848 0.996838C10.2593 1.16616 9.94374 1.41006 9.64631 1.72854C8.87863 2.55297 8.29181 3.83497 8.05668 5.0706C7.32517 5.29838 6.60973 5.52011 5.95258 5.7237C6.36858 3.78054 7.99438 0.859769 9.85934 0.805345Z" fill="#FFA801"/>
<path d="M11.6641 8.03944L10.8924 10.938C10.8924 10.938 10.0303 10.545 9.00935 10.6095C7.51216 10.7042 7.49608 11.6516 7.51015 11.8895C7.59255 13.1856 10.9929 13.4698 11.1838 16.5055C11.3345 18.8941 9.91972 20.5288 7.88395 20.6578C5.44021 20.813 4.09375 19.3658 4.09375 19.3658L4.61224 17.1545C4.61224 17.1545 5.96674 18.1805 7.05195 18.11C7.75935 18.0656 8.01257 17.4871 7.98845 17.0779C7.88194 15.3867 5.11264 15.4855 4.9378 12.7078C4.7911 10.3696 6.32245 7.99913 9.70067 7.78546C10.9969 7.70685 11.6641 8.03944 11.6641 8.03944Z" fill="white"/>
<path d="M19.0514 4.60912C18.9609 4.60106 17.1864 4.57485 17.1864 4.57485C17.1864 4.57485 15.7033 3.12958 15.5566 2.98243C15.5023 2.92801 15.428 2.89979 15.3496 2.8877V25.0001L21.9995 23.3412C21.9995 23.3412 19.2865 4.93768 19.2684 4.8127C19.2523 4.68773 19.1418 4.61718 19.0514 4.60912Z" fill="#C28102"/>
</svg>
